<svg width="112" height="109" viewBox="0 0 112 109" fill="none" xmlns="http://www.w3.org/2000/svg">
<mask id="mask0_9_656" style="mask-type:alpha" maskUnits="userSpaceOnUse" x="0" y="0" width="112" height="109">
<path d="M111.5 54.5C111.5 84.3107 86.6647 108.5 56 108.5C25.3353 108.5 0.5 84.3107 0.5 54.5C0.5 24.6893 25.3353 0.5 56 0.5C86.6647 0.5 111.5 24.6893 111.5 54.5Z" fill="white" stroke="white"/>
</mask>
<g mask="url(#mask0_9_656)">
<path d="M112.164 0.10968H-1.10449V114.032H112.164V0.10968Z" fill="url(#paint0_radial_9_656)"/>
<path opacity="0.6" d="M-1.10449 71.3113C13.6441 65.3778 26.9178 66.8612 38.7166 75.7614C50.5155 84.6616 63.7892 81.6948 78.5377 66.8612C93.2863 52.0275 104.495 53.5109 112.164 71.3113V114.032H-1.10449V71.3113Z" fill="url(#paint1_linear_9_656)"/>
<path opacity="0.4" d="M-1.10449 80.2115C16.5938 71.3113 32.8172 71.3113 47.5657 80.2115C62.3143 89.1117 77.0628 86.8866 91.8114 73.5363C106.56 60.186 113.344 62.4111 112.164 80.2115V114.032H-1.10449V80.2115Z" fill="url(#paint2_linear_9_656)"/>
<path d="M10.5386 11.915C10.8361 11.915 11.0772 11.6812 11.0772 11.3928C11.0772 11.1045 10.8361 10.8707 10.5386 10.8707C10.2411 10.8707 10 11.1045 10 11.3928C10 11.6812 10.2411 11.915 10.5386 11.915Z" fill="white"/>
<path d="M45.5475 17.0063C45.7706 17.0063 45.9515 16.831 45.9515 16.6147C45.9515 16.3984 45.7706 16.223 45.5475 16.223C45.3244 16.223 45.1436 16.3984 45.1436 16.6147C45.1436 16.831 45.3244 17.0063 45.5475 17.0063Z" fill="white"/>
<path d="M99.4075 30.2436C99.7347 30.2436 100 29.9864 100 29.6692C100 29.352 99.7347 29.0948 99.4075 29.0948C99.0803 29.0948 98.8151 29.352 98.8151 29.6692C98.8151 29.9864 99.0803 30.2436 99.4075 30.2436Z" fill="white"/>
<path d="M85.9425 6.64103C86.2102 6.64103 86.4272 6.43063 86.4272 6.17107C86.4272 5.91152 86.2102 5.70111 85.9425 5.70111C85.6748 5.70111 85.4578 5.91152 85.4578 6.17107C85.4578 6.43063 85.6748 6.64103 85.9425 6.64103Z" fill="white"/>
<path d="M18.6176 43.037C18.7961 43.037 18.9408 42.8967 18.9408 42.7237C18.9408 42.5507 18.7961 42.4104 18.6176 42.4104C18.4391 42.4104 18.2944 42.5507 18.2944 42.7237C18.2944 42.8967 18.4391 43.037 18.6176 43.037Z" fill="white"/>
<path d="M72.4775 14.0038V19.2256" stroke="white"/>
<path d="M69.7847 16.6147H75.1707" stroke="white"/>
<path d="M32.0825 55.7783V61.0001" stroke="white"/>
<path d="M29.3895 58.3892H34.7755" stroke="white"/>
<path d="M14.816 46.712C14.816 46.712 14.81 46.712 14.798 46.712C14.606 46.712 14.414 46.682 14.222 46.622C14.03 46.562 13.874 46.388 13.754 46.1C13.634 45.8 13.574 45.296 13.574 44.588C13.574 44.096 13.64 43.496 13.772 42.788C13.904 42.08 14.072 41.318 14.276 40.502C14.492 39.674 14.726 38.852 14.978 38.036C15.23 37.22 15.47 36.458 15.698 35.75C15.938 35.042 16.148 34.436 16.328 33.932C16.52 33.428 16.658 33.092 16.742 32.924C16.826 32.72 16.964 32.546 17.156 32.402C17.36 32.246 17.57 32.168 17.786 32.168C18.23 32.168 18.518 32.288 18.65 32.528C18.782 32.756 18.848 33.008 18.848 33.284C18.848 33.524 18.746 34.082 18.542 34.958C18.338 35.822 18.014 37.094 17.57 38.774C18.578 38.702 19.61 38.606 20.666 38.486C21.734 38.366 22.676 38.252 23.492 38.144C23.684 37.424 23.87 36.758 24.05 36.146C24.23 35.522 24.386 35 24.518 34.58C24.65 34.148 24.74 33.86 24.788 33.716C24.98 33.272 25.184 32.966 25.4 32.798C25.628 32.63 25.862 32.546 26.102 32.546C26.414 32.546 26.678 32.648 26.894 32.852C27.122 33.044 27.236 33.368 27.236 33.824C27.236 34.112 27.158 34.646 27.002 35.426C26.846 36.206 26.654 37.088 26.426 38.072C26.606 38.192 26.762 38.336 26.894 38.504C27.038 38.672 27.11 38.828 27.11 38.972C27.11 39.164 27.062 39.35 26.966 39.53C26.882 39.698 26.69 39.848 26.39 39.98C26.306 40.016 26.156 40.058 25.94 40.106C25.712 41.03 25.49 41.918 25.274 42.77C25.07 43.61 24.896 44.33 24.752 44.93C24.608 45.518 24.524 45.896 24.5 46.064C24.428 46.508 24.296 46.88 24.104 47.18C23.912 47.492 23.618 47.648 23.222 47.648C22.922 47.648 22.676 47.51 22.484 47.234C22.292 46.958 22.196 46.394 22.196 45.542C22.196 44.906 22.262 44.168 22.394 43.328C22.526 42.476 22.688 41.606 22.88 40.718C21.98 40.862 21.008 40.988 19.964 41.096C18.92 41.192 17.9 41.234 16.904 41.222C16.556 42.578 16.268 43.658 16.04 44.462C15.824 45.266 15.626 45.842 15.446 46.19C15.266 46.538 15.056 46.712 14.816 46.712ZM30.6366 47.684C30.2526 47.684 29.9046 47.576 29.5926 47.36C29.2806 47.156 29.0346 46.886 28.8546 46.55C28.6746 46.202 28.5846 45.83 28.5846 45.434C28.5846 44.69 28.7466 43.964 29.0706 43.256C29.4066 42.548 29.8446 41.876 30.3846 41.24C30.9246 40.604 31.5126 40.022 32.1486 39.494C32.7966 38.954 33.4386 38.492 34.0746 38.108C34.7226 37.724 35.3106 37.424 35.8386 37.208C36.3786 36.992 36.7986 36.884 37.0986 36.884C37.4466 36.884 37.7286 36.962 37.9446 37.118C38.1726 37.262 38.2866 37.49 38.2866 37.802C38.2866 37.898 38.2626 37.976 38.2146 38.036C38.3706 38.072 38.4966 38.162 38.5926 38.306C38.6886 38.45 38.7366 38.666 38.7366 38.954C38.7366 39.074 38.7066 39.386 38.6466 39.89C38.5866 40.394 38.5206 41.006 38.4486 41.726C38.3886 42.446 38.3586 43.196 38.3586 43.976C38.3586 44.096 38.3766 44.204 38.4126 44.3C38.4486 44.384 38.5266 44.426 38.6466 44.426C39.1266 44.426 39.6126 44.33 40.1046 44.138C40.6086 43.934 41.0946 43.688 41.5626 43.4C42.0426 43.1 42.4746 42.806 42.8586 42.518C43.2546 42.218 43.5846 41.972 43.8486 41.78C44.1246 41.576 44.3046 41.474 44.3886 41.474C44.7966 41.474 45.0006 41.678 45.0006 42.086C45.0006 42.194 44.8686 42.422 44.6046 42.77C44.3526 43.106 44.0046 43.496 43.5606 43.94C43.1166 44.372 42.6186 44.804 42.0666 45.236C41.5266 45.656 40.9626 46.004 40.3746 46.28C39.7986 46.556 39.2406 46.694 38.7006 46.694C38.0406 46.694 37.5366 46.538 37.1886 46.226C36.8526 45.914 36.6126 45.494 36.4686 44.966C36.3366 44.426 36.2646 43.82 36.2526 43.148C35.6406 44.024 35.0046 44.804 34.3446 45.488C33.6966 46.16 33.0546 46.694 32.4186 47.09C31.7826 47.486 31.1886 47.684 30.6366 47.684ZM37.0086 38.666C35.8326 39.23 34.7766 39.878 33.8406 40.61C32.9046 41.33 32.1606 42.086 31.6086 42.878C31.0686 43.67 30.7986 44.432 30.7986 45.164C30.7986 45.368 30.8946 45.47 31.0866 45.47C31.3146 45.47 31.6146 45.338 31.9866 45.074C32.3706 44.81 32.7846 44.462 33.2286 44.03C33.6726 43.586 34.1166 43.094 34.5606 42.554C35.0046 42.002 35.4186 41.438 35.8026 40.862C36.1866 40.286 36.4926 39.734 36.7206 39.206C36.8046 39.014 36.9006 38.834 37.0086 38.666ZM44.5558 47.792C44.2558 47.792 43.9978 47.684 43.7818 47.468C43.5778 47.252 43.4758 46.94 43.4758 46.532C43.4758 46.352 43.4998 46.058 43.5478 45.65C43.6078 45.23 43.6798 44.75 43.7638 44.21C43.8598 43.67 43.9498 43.106 44.0338 42.518C44.1298 41.93 44.2078 41.372 44.2678 40.844C44.3398 40.316 44.3878 39.866 44.4118 39.494C44.4358 39.038 44.5558 38.714 44.7718 38.522C44.9878 38.318 45.2458 38.216 45.5458 38.216C45.7858 38.216 46.0018 38.276 46.1938 38.396C46.3978 38.504 46.5238 38.738 46.5718 39.098C46.6318 39.446 46.6378 39.95 46.5898 40.61C47.1178 39.65 47.6518 38.792 48.1918 38.036C48.7438 37.28 49.3198 36.68 49.9198 36.236C50.9158 35.48 51.8158 35.102 52.6198 35.102C53.0758 35.102 53.3758 35.204 53.5198 35.408C53.6638 35.612 53.7358 35.822 53.7358 36.038C53.7358 36.182 53.6998 36.314 53.6278 36.434C53.5678 36.554 53.4358 36.68 53.2318 36.812C53.0278 36.944 52.7158 37.118 52.2958 37.334C51.7318 37.622 51.1738 38 50.6218 38.468C50.0818 38.936 49.5418 39.536 49.0018 40.268C48.4618 41 47.9158 41.9 47.3638 42.968C46.8118 44.036 46.2418 45.308 45.6538 46.784C45.5458 47.192 45.3898 47.462 45.1858 47.594C44.9938 47.726 44.7838 47.792 44.5558 47.792ZM59.8668 47.81C59.5908 47.81 59.3388 47.696 59.1108 47.468C58.8948 47.252 58.7868 46.886 58.7868 46.37C58.7868 45.986 58.8168 45.452 58.8768 44.768C58.9488 44.072 59.0808 43.178 59.2728 42.086C58.8528 42.95 58.4148 43.718 57.9588 44.39C57.5028 45.062 57.0528 45.59 56.6088 45.974C56.1768 46.346 55.7628 46.532 55.3668 46.532C54.7308 46.532 54.2268 46.34 53.8548 45.956C53.4828 45.56 53.2968 44.822 53.2968 43.742C53.2968 43.226 53.3388 42.644 53.4228 41.996C53.5188 41.348 53.6388 40.7 53.7828 40.052C53.9268 39.404 54.0708 38.828 54.2148 38.324C54.3708 37.808 54.5088 37.424 54.6288 37.172C54.7248 36.956 54.8448 36.788 54.9888 36.668C55.1448 36.548 55.3428 36.488 55.5828 36.488C55.9668 36.488 56.2608 36.614 56.4648 36.866C56.6688 37.118 56.7708 37.376 56.7708 37.64C56.7708 37.844 56.7228 38.138 56.6268 38.522C56.5428 38.906 56.4348 39.332 56.3028 39.8C56.1828 40.268 56.0568 40.748 55.9248 41.24C55.7928 41.732 55.6788 42.194 55.5828 42.626C55.4988 43.058 55.4568 43.424 55.4568 43.724C55.4568 44.096 55.6008 44.282 55.8888 44.282C56.0568 44.282 56.2728 44.12 56.5368 43.796C56.8128 43.472 57.1008 43.04 57.4008 42.5C57.7128 41.948 58.0248 41.348 58.3368 40.7C58.6608 40.04 58.9548 39.374 59.2188 38.702C59.4948 38.018 59.7288 37.388 59.9208 36.812C60.0408 36.452 60.2028 36.2 60.4068 36.056C60.6108 35.912 60.8448 35.84 61.1088 35.84C61.5168 35.84 61.8288 35.954 62.0448 36.182C62.2728 36.41 62.3868 36.734 62.3868 37.154C62.3868 37.346 62.3568 37.67 62.2968 38.126C62.2368 38.582 62.1588 39.116 62.0628 39.728C61.9788 40.34 61.8768 40.988 61.7568 41.672C61.6368 42.356 61.5168 43.028 61.3968 43.688C61.2888 44.348 61.1808 44.954 61.0728 45.506C60.9648 46.046 60.8748 46.478 60.8028 46.802C60.6828 47.282 60.5388 47.57 60.3708 47.666C60.2028 47.762 60.0348 47.81 59.8668 47.81ZM66.7767 47.558C66.0567 47.558 65.5587 47.414 65.2827 47.126C65.0187 46.85 64.8867 46.466 64.8867 45.974C64.8867 43.886 65.2767 41.708 66.0567 39.44C66.8487 37.16 67.9587 34.874 69.3867 32.582C69.6267 32.186 69.8247 31.952 69.9807 31.88C70.1367 31.808 70.3107 31.772 70.5027 31.772C70.7787 31.772 71.0187 31.868 71.2227 32.06C71.4387 32.252 71.5467 32.504 71.5467 32.816C71.5467 32.912 71.4447 33.176 71.2407 33.608C71.0367 34.04 70.7667 34.592 70.4307 35.264C70.1067 35.936 69.7527 36.698 69.3687 37.55C68.9847 38.39 68.6067 39.278 68.2347 40.214C67.8747 41.15 67.5627 42.092 67.2987 43.04C67.7067 42.524 68.1687 41.996 68.6847 41.456C69.2127 40.904 69.7587 40.4 70.3227 39.944C70.8867 39.476 71.4327 39.104 71.9607 38.828C72.4887 38.54 72.9627 38.396 73.3827 38.396C73.7787 38.396 74.1447 38.492 74.4807 38.684C74.8287 38.876 75.1107 39.176 75.3267 39.584C75.5427 39.992 75.6507 40.52 75.6507 41.168C75.6507 41.876 75.4467 42.602 75.0387 43.346C74.6427 44.09 74.0607 44.78 73.2927 45.416C72.5367 46.052 71.6067 46.568 70.5027 46.964C69.4107 47.36 68.1687 47.558 66.7767 47.558ZM67.5327 45.506C68.4567 45.434 69.2907 45.236 70.0347 44.912C70.7907 44.588 71.4387 44.186 71.9787 43.706C72.5187 43.226 72.9327 42.722 73.2207 42.194C73.5087 41.654 73.6527 41.144 73.6527 40.664C73.6527 40.556 73.6227 40.502 73.5627 40.502C73.3107 40.502 72.9927 40.616 72.6087 40.844C72.2247 41.06 71.8047 41.354 71.3487 41.726C70.8927 42.098 70.4307 42.506 69.9627 42.95C69.4947 43.394 69.0507 43.838 68.6307 44.282C68.2107 44.726 67.8447 45.134 67.5327 45.506ZM80.8674 47.792C80.2074 47.792 79.6194 47.612 79.1034 47.252C78.5874 46.904 78.1794 46.412 77.8794 45.776C77.5914 45.14 77.4474 44.396 77.4474 43.544C77.4474 42.632 77.5554 41.744 77.7714 40.88C77.9874 40.004 78.2634 39.218 78.5994 38.522C78.9354 37.814 79.2714 37.256 79.6074 36.848C79.9554 36.428 80.2554 36.218 80.5074 36.218C80.7714 36.218 80.9874 36.296 81.1554 36.452C81.3354 36.608 81.4254 36.842 81.4254 37.154C81.4254 37.202 81.3714 37.376 81.2634 37.676C81.1674 37.964 81.0414 38.336 80.8854 38.792C80.7294 39.236 80.5734 39.734 80.4174 40.286C80.2614 40.826 80.1294 41.378 80.0214 41.942C79.9254 42.506 79.8774 43.046 79.8774 43.562C79.8774 44.186 79.9734 44.684 80.1654 45.056C80.3574 45.428 80.7714 45.614 81.4074 45.614C82.0554 45.614 82.6854 45.428 83.2974 45.056C83.9214 44.684 84.5214 44.186 85.0974 43.562C85.6734 42.926 86.2254 42.218 86.7534 41.438C86.1294 41.486 85.5414 41.51 84.9894 41.51C84.6174 41.51 84.3474 41.474 84.1794 41.402C84.0114 41.318 83.9034 41.21 83.8554 41.078C83.8194 40.946 83.8014 40.79 83.8014 40.61C83.8014 40.358 83.9154 40.13 84.1434 39.926C84.3714 39.722 84.6234 39.614 84.8994 39.602C85.4154 39.566 85.9374 39.524 86.4654 39.476C87.0054 39.428 87.5394 39.374 88.0674 39.314C88.4634 38.606 88.8294 37.904 89.1654 37.208C89.5134 36.5 89.8314 35.834 90.1194 35.21C90.3954 34.43 90.6894 33.71 91.0014 33.05C91.3254 32.378 91.6374 31.838 91.9374 31.43C92.2374 31.022 92.5194 30.818 92.7834 30.818C93.0954 30.818 93.3294 30.902 93.4854 31.07C93.6534 31.238 93.7374 31.46 93.7374 31.736C93.7374 31.82 93.6774 32.066 93.5574 32.474C93.4374 32.882 93.2694 33.41 93.0534 34.058C92.8494 34.706 92.6154 35.438 92.3514 36.254C92.0994 37.058 91.8294 37.91 91.5414 38.81C92.6814 38.618 93.7194 38.432 94.6554 38.252C95.6034 38.072 96.3774 37.922 96.9774 37.802C97.5774 37.682 97.9374 37.622 98.0574 37.622C98.2974 37.622 98.4954 37.736 98.6514 37.964C98.8074 38.18 98.8854 38.39 98.8854 38.594C98.8854 38.714 98.6634 38.87 98.2194 39.062C97.7874 39.254 97.1934 39.464 96.4374 39.692C95.6934 39.908 94.8414 40.13 93.8814 40.358C92.9334 40.574 91.9374 40.766 90.8934 40.934C90.6054 41.882 90.3294 42.812 90.0654 43.724C89.8134 44.624 89.5974 45.458 89.4174 46.226C89.3334 46.562 89.1954 46.82 89.0034 47C88.8234 47.168 88.5774 47.252 88.2654 47.252C87.9414 47.252 87.7014 47.174 87.5454 47.018C87.3894 46.874 87.3114 46.61 87.3114 46.226C87.3114 46.19 87.3474 45.992 87.4194 45.632C87.5034 45.26 87.6054 44.804 87.7254 44.264C87.8574 43.712 87.9834 43.148 88.1034 42.572C87.3954 43.556 86.6454 44.444 85.8534 45.236C85.0614 46.028 84.2454 46.652 83.4054 47.108C82.5654 47.564 81.7194 47.792 80.8674 47.792ZM80.9214 34.976C80.5254 34.976 80.2014 34.856 79.9494 34.616C79.6974 34.364 79.5714 34.07 79.5714 33.734C79.5714 33.326 79.7214 32.978 80.0214 32.69C80.3334 32.402 80.6994 32.258 81.1194 32.258C81.5874 32.258 81.9414 32.384 82.1814 32.636C82.4334 32.888 82.5594 33.224 82.5594 33.644C82.5594 33.944 82.4034 34.244 82.0914 34.544C81.7794 34.832 81.3894 34.976 80.9214 34.976Z" fill="white"/>
</g>
<defs>
<radialGradient id="paint0_radial_9_656" cx="0" cy="0" r="1" gradientUnits="userSpaceOnUse" gradientTransform="translate(5662.34 5696.24) scale(7928.82 7974.58)">
<stop offset="0.576923" stop-color="#08162F" stop-opacity="0.7"/>
<stop offset="0.730769" stop-color="#060B1A" stop-opacity="0.7"/>
</radialGradient>
<linearGradient id="paint1_linear_9_656" x1="-1.10449" y1="56.7473" x2="45.0366" y2="147.982" gradientUnits="userSpaceOnUse">
<stop stop-color="#3DFC89"/>
<stop offset="0.307692" stop-color="#62F4E8"/>
<stop offset="0.793269" stop-color="#BC7CF6"/>
</linearGradient>
<linearGradient id="paint2_linear_9_656" x1="-1.10449" y1="64.954" x2="34.6748" y2="147.626" gradientUnits="userSpaceOnUse">
<stop stop-color="#3DFC89"/>
<stop offset="0.302885" stop-color="#62F4E8"/>
<stop offset="0.567308" stop-color="#BC7CF6"/>
</linearGradient>
</defs>
</svg>
